  0
SECTION
  2
HEADER
  9
$ACADVER
  1
AC1014
  9
$HANDSEED
  5
FFFF
  9
$MEASUREMENT
 70
     1
  0
ENDSEC
  0
SECTION
  2
TABLES
  0
TABLE
  2
VPORT
  5
8
330
0
100
AcDbSymbolTable
 70
     4
  0
VPORT
  5
2E
330
8
100
AcDbSymbolTableRecord
100
AcDbViewportTableRecord
  2
*ACTIVE
 70
     0
 10
0.0
 20
0.0
 11
1.0
 21
1.0
 12
210.0
 22
148.5
 13
0.0
 23
0.0
 14
10.0
 24
10.0
 15
10.0
 25
10.0
 16
0.0
 26
0.0
 36
1.0
 17
0.0
 27
0.0
 37
0.0
 40
341.0
 41
1.24
 42
50.0
 43
0.0
 44
0.0
 50
0.0
 51
0.0
 71
     0
 72
   100
 73
     1
 74
     3
 75
     0
 76
     0
 77
     0
 78
     0
  0
ENDTAB
  0
TABLE
  2
LTYPE
  5
5
330
0
100
AcDbSymbolTable
 70
     1
  0
LTYPE
  5
14
330
5
100
AcDbSymbolTableRecord
100
AcDbLinetypeTableRecord
  2
BYBLOCK
 70
     0
  3

 72
    65
 73
     0
 40
0.0
  0
LTYPE
  5
15
330
5
100
AcDbSymbolTableRecord
100
AcDbLinetypeTableRecord
  2
BYLAYER
 70
     0
  3

 72
    65
 73
     0
 40
0.0
  0
LTYPE
  5
16
330
5
100
AcDbSymbolTableRecord
100
AcDbLinetypeTableRecord
  2
CONTINUOUS
 70
     0
  3
Solid line
 72
    65
 73
     0
 40
0.0
  0
ENDTAB
  0
TABLE
  2
LAYER
  5
2
100
AcDbSymbolTable
 70
2
  0
LAYER
  5
50
100
AcDbSymbolTableRecord
100
AcDbLayerTableRecord
  2
0
 70
0
  6
CONTINUOUS
  0
LAYER
  5
51
100
AcDbSymbolTableRecord
100
AcDbLayerTableRecord
  2
Layer_1
 70
0
  6
CONTINUOUS
  0
ENDTAB
  0
TABLE
  2
STYLE
  5
3
330
0
100
AcDbSymbolTable
 70
     1
  0
STYLE
  5
11
330
3
100
AcDbSymbolTableRecord
100
AcDbTextStyleTableRecord
  2
STANDARD
 70
     0
 40
0.0
 41
1.0
 50
0.0
 71
     0
 42
2.5
  3
txt
  4

  0
ENDTAB
  0
TABLE
  2
VIEW
  5
6
330
0
100
AcDbSymbolTable
 70
     0
  0
ENDTAB
  0
TABLE
  2
UCS
  5
7
330
0
100
AcDbSymbolTable
 70
     0
  0
ENDTAB
  0
TABLE
  2
APPID
  5
9
330
0
100
AcDbSymbolTable
 70
     2
  0
APPID
  5
12
330
9
100
AcDbSymbolTableRecord
100
AcDbRegAppTableRecord
  2
ACAD
 70
     0
  0
ENDTAB
  0
TABLE
  2
DIMSTYLE
  5
A
330
0
100
AcDbSymbolTable
 70
     1
  0
DIMSTYLE
105
27
330
A
100
AcDbSymbolTableRecord
100
AcDbDimStyleTableRecord
  2
ISO-25
 70
     0
  3

  4

  5

  6

  7

 40
1.0
 41
2.5
 42
0.625
 43
3.75
 44
1.25
 45
0.0
 46
0.0
 47
0.0
 48
0.0
140
2.5
141
2.5
142
0.0
143
0.03937007874016
144
1.0
145
0.0
146
1.0
147
0.625
 71
     0
 72
     0
 73
     0
 74
     0
 75
     0
 76
     0
 77
     1
 78
     8
170
     0
171
     3
172
     1
173
     0
174
     0
175
     0
176
     0
177
     0
178
     0
270
     2
271
     2
272
     2
273
     2
274
     3
340
11
275
     0
280
     0
281
     0
282
     0
283
     0
284
     8
285
     0
286
     0
287
     3
288
     0
  0
ENDTAB
  0
TABLE
  2
BLOCK_RECORD
  5
1
330
0
100
AcDbSymbolTable
 70
     1
  0
BLOCK_RECORD
  5
1F
330
1
100
AcDbSymbolTableRecord
100
AcDbBlockTableRecord
  2
*MODEL_SPACE
  0
BLOCK_RECORD
  5
1B
330
1
100
AcDbSymbolTableRecord
100
AcDbBlockTableRecord
  2
*PAPER_SPACE
  0
ENDTAB
  0
ENDSEC
  0
SECTION
  2
BLOCKS
  0
BLOCK
  5
20
330
1F
100
AcDbEntity
  8
0
100
AcDbBlockBegin
  2
*MODEL_SPACE
 70
     0
 10
0.0
 20
0.0
 30
0.0
  3
*MODEL_SPACE
  1

  0
ENDBLK
  5
21
330
1F
100
AcDbEntity
  8
0
100
AcDbBlockEnd
  0
BLOCK
  5
1C
330
1B
100
AcDbEntity
 67
     1
  8
0
100
AcDbBlockBegin
  2
*PAPER_SPACE
  1

  0
ENDBLK
  5
1D
330
1B
100
AcDbEntity
 67
     1
  8
0
100
AcDbBlockEnd
  0
ENDSEC
  0
SECTION
  2
ENTITIES
  0
SPLINE
  5
100
100
AcDbEntity
  8
Layer_1
 62
7
100
AcDbSpline
 70
8
 71
3
 72
8
 73
4
 74
0
 40
0
 40
0
 40
0
 40
0
 40
1
 40
1
 40
1
 40
1
 10
159.923815
 20
312.956115
 30
0.0
 10
175.586891
 20
299.632687
 30
0.0
 10
193.237848
 20
288.571771
 30
0.0
 10
212.315240
 20
280.827534
 30
0.0
  0
SPLINE
  5
101
100
AcDbEntity
  8
Layer_1
 62
7
100
AcDbSpline
 70
8
 71
3
 72
8
 73
4
 74
0
 40
0
 40
0
 40
0
 40
0
 40
1
 40
1
 40
1
 40
1
 10
212.315240
 20
280.827534
 30
0.0
 10
230.506526
 20
273.443002
 30
0.0
 10
249.919166
 20
269.257894
 30
0.0
 10
269.482488
 20
267.852979
 30
0.0
  0
SPLINE
  5
102
100
AcDbEntity
  8
Layer_1
 62
7
100
AcDbSpline
 70
8
 71
3
 72
8
 73
4
 74
0
 40
0
 40
0
 40
0
 40
0
 40
1
 40
1
 40
1
 40
1
 10
269.482488
 20
267.852979
 30
0.0
 10
292.910536
 20
266.170526
 30
0.0
 10
316.463410
 20
268.347628
 30
0.0
 10
339.532180
 20
272.491797
 30
0.0
  0
SPLINE
  5
103
100
AcDbEntity
  8
Layer_1
 62
7
100
AcDbSpline
 70
8
 71
3
 72
8
 73
4
 74
0
 40
0
 40
0
 40
0
 40
0
 40
1
 40
1
 40
1
 40
1
 10
339.532180
 20
272.491797
 30
0.0
 10
368.846536
 20
277.757949
 30
0.0
 10
397.492936
 20
286.069716
 30
0.0
 10
426.005730
 20
294.556664
 30
0.0
  0
SPLINE
  5
104
100
AcDbEntity
  8
Layer_1
 62
7
100
AcDbSpline
 70
8
 71
3
 72
8
 73
4
 74
0
 40
0
 40
0
 40
0
 40
0
 40
1
 40
1
 40
1
 40
1
 10
426.005730
 20
294.556664
 30
0.0
 10
453.692470
 20
302.797735
 30
0.0
 10
481.308344
 20
311.434859
 30
0.0
 10
509.546631
 20
317.623272
 30
0.0
  0
SPLINE
  5
105
100
AcDbEntity
  8
Layer_1
 62
7
100
AcDbSpline
 70
8
 71
3
 72
8
 73
4
 74
0
 40
0
 40
0
 40
0
 40
0
 40
1
 40
1
 40
1
 40
1
 10
509.546631
 20
317.623272
 30
0.0
 10
518.662851
 20
319.621089
 30
0.0
 10
527.847368
 20
321.448471
 30
0.0
 10
537.181553
 20
322.071447
 30
0.0
  0
SPLINE
  5
106
100
AcDbEntity
  8
Layer_1
 62
7
100
AcDbSpline
 70
8
 71
3
 72
8
 73
4
 74
0
 40
0
 40
0
 40
0
 40
0
 40
1
 40
1
 40
1
 40
1
 10
537.181553
 20
322.071447
 30
0.0
 10
552.715790
 20
323.108220
 30
0.0
 10
568.490631
 20
321.032428
 30
0.0
 10
583.121220
 20
315.637916
 30
0.0
  0
SPLINE
  5
107
100
AcDbEntity
  8
Layer_1
 62
7
100
AcDbSpline
 70
8
 71
3
 72
8
 73
4
 74
0
 40
0
 40
0
 40
0
 40
0
 40
1
 40
1
 40
1
 40
1
 10
583.121220
 20
315.637916
 30
0.0
 10
598.129157
 20
310.104276
 30
0.0
 10
611.730429
 20
301.036887
 30
0.0
 10
623.020974
 20
289.741614
 30
0.0
  0
SPLINE
  5
108
100
AcDbEntity
  8
Layer_1
 62
7
100
AcDbSpline
 70
8
 71
3
 72
8
 73
4
 74
0
 40
0
 40
0
 40
0
 40
0
 40
1
 40
1
 40
1
 40
1
 10
623.020974
 20
289.741614
 30
0.0
 10
637.006133
 20
275.750623
 30
0.0
 10
647.509553
 20
258.512629
 30
0.0
 10
654.613516
 20
240.108178
 30
0.0
  0
SPLINE
  5
109
100
AcDbEntity
  8
Layer_1
 62
7
100
AcDbSpline
 70
8
 71
3
 72
8
 73
4
 74
0
 40
0
 40
0
 40
0
 40
0
 40
1
 40
1
 40
1
 40
1
 10
654.613516
 20
240.108178
 30
0.0
 10
664.041812
 20
215.682043
 30
0.0
 10
667.695292
 20
189.164084
 30
0.0
 10
666.073648
 20
163.070449
 30
0.0
  0
SPLINE
  5
10a
100
AcDbEntity
  8
Layer_1
 62
7
100
AcDbSpline
 70
8
 71
3
 72
8
 73
4
 74
0
 40
0
 40
0
 40
0
 40
0
 40
1
 40
1
 40
1
 40
1
 10
666.073648
 20
163.070449
 30
0.0
 10
664.267525
 20
134.008074
 30
0.0
 10
655.692306
 20
105.390059
 30
0.0
 10
641.161005
 20
80.142323
 30
0.0
  0
SPLINE
  5
10b
100
AcDbEntity
  8
Layer_1
 62
7
100
AcDbSpline
 70
8
 71
3
 72
8
 73
4
 74
0
 40
0
 40
0
 40
0
 40
0
 40
1
 40
1
 40
1
 40
1
 10
641.161005
 20
80.142323
 30
0.0
 10
634.305169
 20
68.230500
 30
0.0
 10
626.049396
 20
57.154178
 30
0.0
 10
616.831279
 20
46.966764
 30
0.0
  0
SPLINE
  5
10c
100
AcDbEntity
  8
Layer_1
 62
7
100
AcDbSpline
 70
8
 71
3
 72
8
 73
4
 74
0
 40
0
 40
0
 40
0
 40
0
 40
1
 40
1
 40
1
 40
1
 10
616.831279
 20
46.966764
 30
0.0
 10
605.337660
 20
34.264566
 30
0.0
 10
592.265371
 20
22.794455
 30
0.0
 10
577.281585
 20
14.370380
 30
0.0
  0
SPLINE
  5
10d
100
AcDbEntity
  8
Layer_1
 62
7
100
AcDbSpline
 70
8
 71
3
 72
8
 73
4
 74
0
 40
0
 40
0
 40
0
 40
0
 40
1
 40
1
 40
1
 40
1
 10
577.281585
 20
14.370380
 30
0.0
 10
565.595512
 20
7.800314
 30
0.0
 10
552.704489
 20
3.354758
 30
0.0
 10
539.412117
 20
1.508761
 30
0.0
  0
SPLINE
  5
10e
100
AcDbEntity
  8
Layer_1
 62
7
100
AcDbSpline
 70
8
 71
3
 72
8
 73
4
 74
0
 40
0
 40
0
 40
0
 40
0
 40
1
 40
1
 40
1
 40
1
 10
539.412117
 20
1.508761
 30
0.0
 10
524.720602
 20
-0.531541
 30
0.0
 10
509.732205
 20
0.670802
 30
0.0
 10
495.280690
 20
3.791974
 30
0.0
  0
SPLINE
  5
10f
100
AcDbEntity
  8
Layer_1
 62
7
100
AcDbSpline
 70
8
 71
3
 72
8
 73
4
 74
0
 40
0
 40
0
 40
0
 40
0
 40
1
 40
1
 40
1
 40
1
 10
495.280690
 20
3.791974
 30
0.0
 10
477.403941
 20
7.652912
 30
0.0
 10
460.248816
 20
14.201511
 30
0.0
 10
443.446322
 20
21.313674
 30
0.0
  0
SPLINE
  5
110
100
AcDbEntity
  8
Layer_1
 62
7
100
AcDbSpline
 70
8
 71
3
 72
8
 73
4
 74
0
 40
0
 40
0
 40
0
 40
0
 40
1
 40
1
 40
1
 40
1
 10
443.446322
 20
21.313674
 30
0.0
 10
419.571916
 20
31.419262
 30
0.0
 10
396.245692
 20
42.912881
 30
0.0
 10
371.695355
 20
51.348900
 30
0.0
  0
SPLINE
  5
111
100
AcDbEntity
  8
Layer_1
 62
7
100
AcDbSpline
 70
8
 71
3
 72
8
 73
4
 74
0
 40
0
 40
0
 40
0
 40
0
 40
1
 40
1
 40
1
 40
1
 10
371.695355
 20
51.348900
 30
0.0
 10
355.447355
 20
56.932055
 30
0.0
 10
338.576394
 20
61.136100
 30
0.0
 10
321.359800
 20
62.002632
 30
0.0
  0
SPLINE
  5
112
100
AcDbEntity
  8
Layer_1
 62
7
100
AcDbSpline
 70
8
 71
3
 72
8
 73
4
 74
0
 40
0
 40
0
 40
0
 40
0
 40
1
 40
1
 40
1
 40
1
 10
321.359800
 20
62.002632
 30
0.0
 10
309.616819
 20
62.593674
 30
0.0
 10
297.774641
 20
61.512276
 30
0.0
 10
286.376145
 20
58.589832
 30
0.0
  0
SPLINE
  5
113
100
AcDbEntity
  8
Layer_1
 62
7
100
AcDbSpline
 70
8
 71
3
 72
8
 73
4
 74
0
 40
0
 40
0
 40
0
 40
0
 40
1
 40
1
 40
1
 40
1
 10
286.376145
 20
58.589832
 30
0.0
 10
258.981230
 20
51.566109
 30
0.0
 10
230.889026
 20
46.964496
 30
0.0
 10
202.599598
 20
46.017611
 30
0.0
  0
SPLINE
  5
114
100
AcDbEntity
  8
Layer_1
 62
7
100
AcDbSpline
 70
8
 71
3
 72
8
 73
4
 74
0
 40
0
 40
0
 40
0
 40
0
 40
1
 40
1
 40
1
 40
1
 10
202.599598
 20
46.017611
 30
0.0
 10
178.332503
 20
45.205353
 30
0.0
 10
153.854774
 20
47.084610
 30
0.0
 10
130.273417
 20
53.060345
 30
0.0
  0
SPLINE
  5
115
100
AcDbEntity
  8
Layer_1
 62
7
100
AcDbSpline
 70
8
 71
3
 72
8
 73
4
 74
0
 40
0
 40
0
 40
0
 40
0
 40
1
 40
1
 40
1
 40
1
 10
130.273417
 20
53.060345
 30
0.0
 10
110.537907
 20
58.061492
 30
0.0
 10
91.494452
 20
66.115740
 30
0.0
 10
74.598172
 20
77.542122
 30
0.0
  0
SPLINE
  5
116
100
AcDbEntity
  8
Layer_1
 62
7
100
AcDbSpline
 70
8
 71
3
 72
8
 73
4
 74
0
 40
0
 40
0
 40
0
 40
0
 40
1
 40
1
 40
1
 40
1
 10
74.598172
 20
77.542122
 30
0.0
 10
59.400178
 20
87.820018
 30
0.0
 10
46.143424
 20
100.901189
 30
0.0
 10
35.471709
 20
115.819060
 30
0.0
  0
SPLINE
  5
117
100
AcDbEntity
  8
Layer_1
 62
7
100
AcDbSpline
 70
8
 71
3
 72
8
 73
4
 74
0
 40
0
 40
0
 40
0
 40
0
 40
1
 40
1
 40
1
 40
1
 10
35.471709
 20
115.819060
 30
0.0
 10
22.915298
 20
133.371526
 30
0.0
 10
13.861459
 20
153.296024
 30
0.0
 10
7.972981
 20
174.006833
 30
0.0
  0
SPLINE
  5
118
100
AcDbEntity
  8
Layer_1
 62
7
100
AcDbSpline
 70
8
 71
3
 72
8
 73
4
 74
0
 40
0
 40
0
 40
0
 40
0
 40
1
 40
1
 40
1
 40
1
 10
7.972981
 20
174.006833
 30
0.0
 10
5.340223
 20
183.266706
 30
0.0
 10
2.968078
 20
192.637803
 30
0.0
 10
1.656619
 20
202.185793
 30
0.0
  0
SPLINE
  5
119
100
AcDbEntity
  8
Layer_1
 62
7
100
AcDbSpline
 70
8
 71
3
 72
8
 73
4
 74
0
 40
0
 40
0
 40
0
 40
0
 40
1
 40
1
 40
1
 40
1
 10
1.656619
 20
202.185793
 30
0.0
 10
-0.765344
 20
219.818733
 30
0.0
 10
0.612581
 20
237.977197
 30
0.0
 10
5.829165
 20
255.007703
 30
0.0
  0
SPLINE
  5
11a
100
AcDbEntity
  8
Layer_1
 62
7
100
AcDbSpline
 70
8
 71
3
 72
8
 73
4
 74
0
 40
0
 40
0
 40
0
 40
0
 40
1
 40
1
 40
1
 40
1
 10
5.829165
 20
255.007703
 30
0.0
 10
12.642769
 20
277.251972
 30
0.0
 10
26.072648
 20
297.485250
 30
0.0
 10
44.199284
 20
312.114588
 30
0.0
  0
SPLINE
  5
11b
100
AcDbEntity
  8
Layer_1
 62
7
100
AcDbSpline
 70
8
 71
3
 72
8
 73
4
 74
0
 40
0
 40
0
 40
0
 40
0
 40
1
 40
1
 40
1
 40
1
 10
44.199284
 20
312.114588
 30
0.0
 10
56.924005
 20
322.384241
 30
0.0
 10
72.054569
 20
329.827638
 30
0.0
 10
88.169915
 20
332.872498
 30
0.0
  0
SPLINE
  5
11c
100
AcDbEntity
  8
Layer_1
 62
7
100
AcDbSpline
 70
8
 71
3
 72
8
 73
4
 74
0
 40
0
 40
0
 40
0
 40
0
 40
1
 40
1
 40
1
 40
1
 10
88.169915
 20
332.872498
 30
0.0
 10
101.009159
 20
335.298365
 30
0.0
 10
114.413208
 20
334.706098
 30
0.0
 10
126.971883
 20
331.055176
 30
0.0
  0
SPLINE
  5
11d
100
AcDbEntity
  8
Layer_1
 62
7
100
AcDbSpline
 70
8
 71
3
 72
8
 73
4
 74
0
 40
0
 40
0
 40
0
 40
0
 40
1
 40
1
 40
1
 40
1
 10
126.971883
 20
331.055176
 30
0.0
 10
139.111434
 20
327.526095
 30
0.0
 10
150.319223
 20
321.132756
 30
0.0
 10
159.923815
 20
312.956115
 30
0.0
  0
SPLINE
  5
11e
100
AcDbEntity
  8
Layer_1
 62
7
100
AcDbSpline
 70
8
 71
3
 72
8
 73
4
 74
0
 40
0
 40
0
 40
0
 40
0
 40
1
 40
1
 40
1
 40
1
 10
159.923815
 20
246.475574
 30
0.0
 10
149.084644
 20
245.258649
 30
0.0
 10
138.307676
 20
243.004343
 30
0.0
 10
128.109199
 20
239.081083
 30
0.0
  0
SPLINE
  5
11f
100
AcDbEntity
  8
Layer_1
 62
7
100
AcDbSpline
 70
8
 71
3
 72
8
 73
4
 74
0
 40
0
 40
0
 40
0
 40
0
 40
1
 40
1
 40
1
 40
1
 10
128.109199
 20
239.081083
 30
0.0
 10
119.532129
 20
235.781563
 30
0.0
 10
111.375829
 20
231.238205
 30
0.0
 10
104.392422
 20
225.229368
 30
0.0
  0
SPLINE
  5
120
100
AcDbEntity
  8
Layer_1
 62
7
100
AcDbSpline
 70
8
 71
3
 72
8
 73
4
 74
0
 40
0
 40
0
 40
0
 40
0
 40
1
 40
1
 40
1
 40
1
 10
104.392422
 20
225.229368
 30
0.0
 10
98.409029
 20
220.080990
 30
0.0
 10
93.380704
 20
213.814235
 30
0.0
 10
89.735271
 20
206.805706
 30
0.0
  0
SPLINE
  5
121
100
AcDbEntity
  8
Layer_1
 62
7
100
AcDbSpline
 70
8
 71
3
 72
8
 73
4
 74
0
 40
0
 40
0
 40
0
 40
0
 40
1
 40
1
 40
1
 40
1
 10
89.735271
 20
206.805706
 30
0.0
 10
85.938743
 20
199.506694
 30
0.0
 10
83.696289
 20
191.442459
 30
0.0
 10
82.907187
 20
183.263769
 30
0.0
  0
SPLINE
  5
122
100
AcDbEntity
  8
Layer_1
 62
7
100
AcDbSpline
 70
8
 71
3
 72
8
 73
4
 74
0
 40
0
 40
0
 40
0
 40
0
 40
1
 40
1
 40
1
 40
1
 10
82.907187
 20
183.263769
 30
0.0
 10
81.922620
 20
173.059185
 30
0.0
 10
83.128743
 20
162.703533
 30
0.0
 10
85.972774
 20
152.875325
 30
0.0
  0
SPLINE
  5
123
100
AcDbEntity
  8
Layer_1
 62
7
100
AcDbSpline
 70
8
 71
3
 72
8
 73
4
 74
0
 40
0
 40
0
 40
0
 40
0
 40
1
 40
1
 40
1
 40
1
 10
85.972774
 20
152.875325
 30
0.0
 10
89.303834
 20
141.364093
 30
0.0
 10
94.814113
 20
130.487255
 30
0.0
 10
102.111950
 20
120.985070
 30
0.0
  0
SPLINE
  5
124
100
AcDbEntity
  8
Layer_1
 62
7
100
AcDbSpline
 70
8
 71
3
 72
8
 73
4
 74
0
 40
0
 40
0
 40
0
 40
0
 40
1
 40
1
 40
1
 40
1
 10
102.111950
 20
120.985070
 30
0.0
 10
108.295415
 20
112.933844
 30
0.0
 10
115.794686
 20
105.832226
 30
0.0
 10
124.443341
 20
100.480755
 30
0.0
  0
SPLINE
  5
125
100
AcDbEntity
  8
Layer_1
 62
7
100
AcDbSpline
 70
8
 71
3
 72
8
 73
4
 74
0
 40
0
 40
0
 40
0
 40
0
 40
1
 40
1
 40
1
 40
1
 10
124.443341
 20
100.480755
 30
0.0
 10
131.522381
 20
96.100509
 30
0.0
 10
139.410070
 20
92.961914
 30
0.0
 10
147.641998
 20
91.613227
 30
0.0
  0
SPLINE
  5
126
100
AcDbEntity
  8
Layer_1
 62
7
100
AcDbSpline
 70
8
 71
3
 72
8
 73
4
 74
0
 40
0
 40
0
 40
0
 40
0
 40
1
 40
1
 40
1
 40
1
 10
147.641998
 20
91.613227
 30
0.0
 10
154.955701
 20
90.414966
 30
0.0
 10
162.500251
 20
90.722695
 30
0.0
 10
169.708857
 20
92.439583
 30
0.0
  0
SPLINE
  5
127
100
AcDbEntity
  8
Layer_1
 62
7
100
AcDbSpline
 70
8
 71
3
 72
8
 73
4
 74
0
 40
0
 40
0
 40
0
 40
0
 40
1
 40
1
 40
1
 40
1
 10
169.708857
 20
92.439583
 30
0.0
 10
177.461091
 20
94.285958
 30
0.0
 10
184.772368
 20
97.745284
 30
0.0
 10
191.366842
 20
102.188270
 30
0.0
  0
SPLINE
  5
128
100
AcDbEntity
  8
Layer_1
 62
7
100
AcDbSpline
 70
8
 71
3
 72
8
 73
4
 74
0
 40
0
 40
0
 40
0
 40
0
 40
1
 40
1
 40
1
 40
1
 10
191.366842
 20
102.188270
 30
0.0
 10
199.507578
 20
107.673044
 30
0.0
 10
206.630203
 20
114.568263
 30
0.0
 10
212.846914
 20
122.136049
 30
0.0
  0
SPLINE
  5
129
100
AcDbEntity
  8
Layer_1
 62
7
100
AcDbSpline
 70
8
 71
3
 72
8
 73
4
 74
0
 40
0
 40
0
 40
0
 40
0
 40
1
 40
1
 40
1
 40
1
 10
212.846914
 20
122.136049
 30
0.0
 10
217.812722
 20
128.181063
 30
0.0
 10
222.357328
 20
134.584490
 30
0.0
 10
226.308896
 20
141.337826
 30
0.0
  0
SPLINE
  5
12a
100
AcDbEntity
  8
Layer_1
 62
7
100
AcDbSpline
 70
8
 71
3
 72
8
 73
4
 74
0
 40
0
 40
0
 40
0
 40
0
 40
1
 40
1
 40
1
 40
1
 10
226.308896
 20
141.337826
 30
0.0
 10
231.421807
 20
150.075942
 30
0.0
 10
235.580243
 20
159.395501
 30
0.0
 10
238.419027
 20
169.119470
 30
0.0
  0
SPLINE
  5
12b
100
AcDbEntity
  8
Layer_1
 62
7
100
AcDbSpline
 70
8
 71
3
 72
8
 73
4
 74
0
 40
0
 40
0
 40
0
 40
0
 40
1
 40
1
 40
1
 40
1
 10
238.419027
 20
169.119470
 30
0.0
 10
240.734933
 20
177.052377
 30
0.0
 10
242.197213
 20
185.272868
 30
0.0
 10
242.297068
 20
193.549346
 30
0.0
  0
SPLINE
  5
12c
100
AcDbEntity
  8
Layer_1
 62
7
100
AcDbSpline
 70
8
 71
3
 72
8
 73
4
 74
0
 40
0
 40
0
 40
0
 40
0
 40
1
 40
1
 40
1
 40
1
 10
242.297068
 20
193.549346
 30
0.0
 10
242.379500
 20
200.381749
 30
0.0
 10
241.500189
 20
207.266661
 30
0.0
 10
239.287151
 20
213.749337
 30
0.0
  0
SPLINE
  5
12d
100
AcDbEntity
  8
Layer_1
 62
7
100
AcDbSpline
 70
8
 71
3
 72
8
 73
4
 74
0
 40
0
 40
0
 40
0
 40
0
 40
1
 40
1
 40
1
 40
1
 10
239.287151
 20
213.749337
 30
0.0
 10
237.397693
 20
219.284149
 30
0.0
 10
234.467093
 20
224.471339
 30
0.0
 10
230.617002
 20
228.882569
 30
0.0
  0
SPLINE
  5
12e
100
AcDbEntity
  8
Layer_1
 62
7
100
AcDbSpline
 70
8
 71
3
 72
8
 73
4
 74
0
 40
0
 40
0
 40
0
 40
0
 40
1
 40
1
 40
1
 40
1
 10
230.617002
 20
228.882569
 30
0.0
 10
226.742033
 20
233.322300
 30
0.0
 10
221.948753
 20
236.913929
 30
0.0
 10
216.725023
 20
239.619583
 30
0.0
  0
SPLINE
  5
12f
100
AcDbEntity
  8
Layer_1
 62
7
100
AcDbSpline
 70
8
 71
3
 72
8
 73
4
 74
0
 40
0
 40
0
 40
0
 40
0
 40
1
 40
1
 40
1
 40
1
 10
216.725023
 20
239.619583
 30
0.0
 10
210.445553
 20
242.872063
 30
0.0
 10
203.587208
 20
244.894273
 30
0.0
 10
196.633300
 20
246.077889
 30
0.0
  0
SPLINE
  5
130
100
AcDbEntity
  8
Layer_1
 62
7
100
AcDbSpline
 70
8
 71
3
 72
8
 73
4
 74
0
 40
0
 40
0
 40
0
 40
0
 40
1
 40
1
 40
1
 40
1
 10
196.633300
 20
246.077889
 30
0.0
 10
188.108069
 20
247.528959
 30
0.0
 10
179.416033
 20
247.787146
 30
0.0
 10
170.791196
 20
247.361590
 30
0.0
  0
SPLINE
  5
131
100
AcDbEntity
  8
Layer_1
 62
7
100
AcDbSpline
 70
8
 71
3
 72
8
 73
4
 74
0
 40
0
 40
0
 40
0
 40
0
 40
1
 40
1
 40
1
 40
1
 10
170.791196
 20
247.361590
 30
0.0
 10
167.160476
 20
247.182440
 30
0.0
 10
163.536314
 20
246.879213
 30
0.0
 10
159.923815
 20
246.475574
 30
0.0
  0
LWPOLYLINE
  5
132
100
AcDbEntity
  8
Layer_1
 62
7
100
AcDbPolyline
 90
1
 70
1
 10
159.923815
 20
312.956115
 30
0.0
  0
SPLINE
  5
133
100
AcDbEntity
  8
Layer_1
 62
7
100
AcDbSpline
 70
8
 71
3
 72
8
 73
4
 74
0
 40
0
 40
0
 40
0
 40
0
 40
1
 40
1
 40
1
 40
1
 10
548.330215
 20
249.610779
 30
0.0
 10
536.875223
 20
254.916340
 30
0.0
 10
524.863090
 20
259.287999
 30
0.0
 10
512.348394
 20
261.226511
 30
0.0
  0
SPLINE
  5
134
100
AcDbEntity
  8
Layer_1
 62
7
100
AcDbSpline
 70
8
 71
3
 72
8
 73
4
 74
0
 40
0
 40
0
 40
0
 40
0
 40
1
 40
1
 40
1
 40
1
 10
512.348394
 20
261.226511
 30
0.0
 10
503.143468
 20
262.652345
 30
0.0
 10
493.602089
 20
262.666065
 30
0.0
 10
484.550990
 20
260.261148
 30
0.0
  0
SPLINE
  5
135
100
AcDbEntity
  8
Layer_1
 62
7
100
AcDbSpline
 70
8
 71
3
 72
8
 73
4
 74
0
 40
0
 40
0
 40
0
 40
0
 40
1
 40
1
 40
1
 40
1
 10
484.550990
 20
260.261148
 30
0.0
 10
477.059361
 20
258.270592
 30
0.0
 10
470.070826
 20
254.436601
 30
0.0
 10
464.377686
 20
249.166658
 30
0.0
  0
SPLINE
  5
136
100
AcDbEntity
  8
Layer_1
 62
7
100
AcDbSpline
 70
8
 71
3
 72
8
 73
4
 74
0
 40
0
 40
0
 40
0
 40
0
 40
1
 40
1
 40
1
 40
1
 10
464.377686
 20
249.166658
 30
0.0
 10
458.728690
 20
243.937584
 30
0.0
 10
454.399620
 20
237.399417
 30
0.0
 10
451.268205
 20
230.395019
 30
0.0
  0
SPLINE
  5
137
100
AcDbEntity
  8
Layer_1
 62
7
100
AcDbSpline
 70
8
 71
3
 72
8
 73
4
 74
0
 40
0
 40
0
 40
0
 40
0
 40
1
 40
1
 40
1
 40
1
 10
451.268205
 20
230.395019
 30
0.0
 10
447.680186
 20
222.369290
 30
0.0
 10
445.560174
 20
213.743524
 30
0.0
 10
444.484105
 20
205.036947
 30
0.0
  0
SPLINE
  5
138
100
AcDbEntity
  8
Layer_1
 62
7
100
AcDbSpline
 70
8
 71
3
 72
8
 73
4
 74
0
 40
0
 40
0
 40
0
 40
0
 40
1
 40
1
 40
1
 40
1
 10
444.484105
 20
205.036947
 30
0.0
 10
443.146794
 20
194.216712
 30
0.0
 10
443.342649
 20
183.232078
 30
0.0
 10
444.742624
 20
172.429969
 30
0.0
  0
SPLINE
  5
139
100
AcDbEntity
  8
Layer_1
 62
7
100
AcDbSpline
 70
8
 71
3
 72
8
 73
4
 74
0
 40
0
 40
0
 40
0
 40
0
 40
1
 40
1
 40
1
 40
1
 10
444.742624
 20
172.429969
 30
0.0
 10
446.284105
 20
160.535860
 30
0.0
 10
449.224879
 20
148.804433
 30
0.0
 10
453.692659
 20
137.669151
 30
0.0
  0
SPLINE
  5
13a
100
AcDbEntity
  8
Layer_1
 62
7
100
AcDbSpline
 70
8
 71
3
 72
8
 73
4
 74
0
 40
0
 40
0
 40
0
 40
0
 40
1
 40
1
 40
1
 40
1
 10
453.692659
 20
137.669151
 30
0.0
 10
457.196886
 20
128.935381
 30
0.0
 10
461.616741
 20
120.522455
 30
0.0
 10
467.281723
 20
112.989970
 30
0.0
  0
SPLINE
  5
13b
100
AcDbEntity
  8
Layer_1
 62
7
100
AcDbSpline
 70
8
 71
3
 72
8
 73
4
 74
0
 40
0
 40
0
 40
0
 40
0
 40
1
 40
1
 40
1
 40
1
 10
467.281723
 20
112.989970
 30
0.0
 10
471.863758
 20
106.897448
 30
0.0
 10
477.293352
 20
101.367470
 30
0.0
 10
483.680451
 20
97.160553
 30
0.0
  0
SPLINE
  5
13c
100
AcDbEntity
  8
Layer_1
 62
7
100
AcDbSpline
 70
8
 71
3
 72
8
 73
4
 74
0
 40
0
 40
0
 40
0
 40
0
 40
1
 40
1
 40
1
 40
1
 10
483.680451
 20
97.160553
 30
0.0
 10
489.567330
 20
93.283098
 30
0.0
 10
496.355550
 20
90.710222
 30
0.0
 10
503.397868
 20
90.043438
 30
0.0
  0
SPLINE
  5
13d
100
AcDbEntity
  8
Layer_1
 62
7
100
AcDbSpline
 70
8
 71
3
 72
8
 73
4
 74
0
 40
0
 40
0
 40
0
 40
0
 40
1
 40
1
 40
1
 40
1
 10
503.397868
 20
90.043438
 30
0.0
 10
511.083462
 20
89.315766
 30
0.0
 10
518.855607
 20
90.974260
 30
0.0
 10
525.873736
 20
94.090707
 30
0.0
  0
SPLINE
  5
13e
100
AcDbEntity
  8
Layer_1
 62
7
100
AcDbSpline
 70
8
 71
3
 72
8
 73
4
 74
0
 40
0
 40
0
 40
0
 40
0
 40
1
 40
1
 40
1
 40
1
 10
525.873736
 20
94.090707
 30
0.0
 10
535.193560
 20
98.229252
 30
0.0
 10
543.347777
 20
104.610871
 30
0.0
 10
550.547701
 20
111.754292
 30
0.0
  0
SPLINE
  5
13f
100
AcDbEntity
  8
Layer_1
 62
7
100
AcDbSpline
 70
8
 71
3
 72
8
 73
4
 74
0
 40
0
 40
0
 40
0
 40
0
 40
1
 40
1
 40
1
 40
1
 10
550.547701
 20
111.754292
 30
0.0
 10
558.735632
 20
119.877970
 30
0.0
 10
565.949390
 20
128.955753
 30
0.0
 10
572.314454
 20
138.557643
 30
0.0
  0
SPLINE
  5
140
100
AcDbEntity
  8
Layer_1
 62
7
100
AcDbSpline
 70
8
 71
3
 72
8
 73
4
 74
0
 40
0
 40
0
 40
0
 40
0
 40
1
 40
1
 40
1
 40
1
 10
572.314454
 20
138.557643
 30
0.0
 10
577.659802
 20
146.621265
 30
0.0
 10
582.015594
 20
155.361611
 30
0.0
 10
585.035550
 20
164.558298
 30
0.0
  0
SPLINE
  5
141
100
AcDbEntity
  8
Layer_1
 62
7
100
AcDbSpline
 70
8
 71
3
 72
8
 73
4
 74
0
 40
0
 40
0
 40
0
 40
0
 40
1
 40
1
 40
1
 40
1
 10
585.035550
 20
164.558298
 30
0.0
 10
587.714479
 20
172.716488
 30
0.0
 10
589.337257
 20
181.259006
 30
0.0
 10
589.428986
 20
189.859234
 30
0.0
  0
SPLINE
  5
142
100
AcDbEntity
  8
Layer_1
 62
7
100
AcDbSpline
 70
8
 71
3
 72
8
 73
4
 74
0
 40
0
 40
0
 40
0
 40
0
 40
1
 40
1
 40
1
 40
1
 10
589.428986
 20
189.859234
 30
0.0
 10
589.506845
 20
197.171683
 30
0.0
 10
588.414826
 20
204.516325
 30
0.0
 10
585.996609
 20
211.428582
 30
0.0
  0
SPLINE
  5
143
100
AcDbEntity
  8
Layer_1
 62
7
100
AcDbSpline
 70
8
 71
3
 72
8
 73
4
 74
0
 40
0
 40
0
 40
0
 40
0
 40
1
 40
1
 40
1
 40
1
 10
585.996609
 20
211.428582
 30
0.0
 10
583.752401
 20
217.843468
 30
0.0
 10
580.327090
 20
223.829284
 30
0.0
 10
576.013856
 20
229.077929
 30
0.0
  0
SPLINE
  5
144
100
AcDbEntity
  8
Layer_1
 62
7
100
AcDbSpline
 70
8
 71
3
 72
8
 73
4
 74
0
 40
0
 40
0
 40
0
 40
0
 40
1
 40
1
 40
1
 40
1
 10
576.013856
 20
229.077929
 30
0.0
 10
571.072010
 20
235.091486
 30
0.0
 10
564.995550
 20
240.109674
 30
0.0
 10
558.393358
 20
244.203129
 30
0.0
  0
SPLINE
  5
145
100
AcDbEntity
  8
Layer_1
 62
7
100
AcDbSpline
 70
8
 71
3
 72
8
 73
4
 74
0
 40
0
 40
0
 40
0
 40
0
 40
1
 40
1
 40
1
 40
1
 10
558.393358
 20
244.203129
 30
0.0
 10
555.154757
 20
246.211106
 30
0.0
 10
551.784854
 20
248.004068
 30
0.0
 10
548.330215
 20
249.610779
 30
0.0
  0
LWPOLYLINE
  5
146
100
AcDbEntity
  8
Layer_1
 62
7
100
AcDbPolyline
 90
1
 70
1
 10
159.923815
 20
246.475574
 30
0.0
  0
LWPOLYLINE
  5
147
100
AcDbEntity
  8
Layer_1
 62
7
100
AcDbPolyline
 90
1
 70
1
 10
548.330215
 20
249.610779
 30
0.0
  0
ENDSEC
  0
SECTION
  2
OBJECTS
  0
DICTIONARY
  5
C
330
0
100
AcDbDictionary
  3
ACAD_GROUP
350
D
  3
ACAD_MLINESTYLE
350
17
  0
DICTIONARY
  5
D
330
C
100
AcDbDictionary
  0
DICTIONARY
  5
1A
330
C
100
AcDbDictionary
  0
DICTIONARY
  5
17
330
C
100
AcDbDictionary
  3
STANDARD
350
18
  0
DICTIONARY
  5
19
330
C
100
AcDbDictionary
  0
ENDSEC
  0
EOF
