  0
SECTION
  2
HEADER
  9
$ACADVER
  1
AC1014
  9
$HANDSEED
  5
FFFF
  9
$MEASUREMENT
 70
     1
  0
ENDSEC
  0
SECTION
  2
TABLES
  0
TABLE
  2
VPORT
  5
8
330
0
100
AcDbSymbolTable
 70
     4
  0
VPORT
  5
2E
330
8
100
AcDbSymbolTableRecord
100
AcDbViewportTableRecord
  2
*ACTIVE
 70
     0
 10
0.0
 20
0.0
 11
1.0
 21
1.0
 12
210.0
 22
148.5
 13
0.0
 23
0.0
 14
10.0
 24
10.0
 15
10.0
 25
10.0
 16
0.0
 26
0.0
 36
1.0
 17
0.0
 27
0.0
 37
0.0
 40
341.0
 41
1.24
 42
50.0
 43
0.0
 44
0.0
 50
0.0
 51
0.0
 71
     0
 72
   100
 73
     1
 74
     3
 75
     0
 76
     0
 77
     0
 78
     0
  0
ENDTAB
  0
TABLE
  2
LTYPE
  5
5
330
0
100
AcDbSymbolTable
 70
     1
  0
LTYPE
  5
14
330
5
100
AcDbSymbolTableRecord
100
AcDbLinetypeTableRecord
  2
BYBLOCK
 70
     0
  3

 72
    65
 73
     0
 40
0.0
  0
LTYPE
  5
15
330
5
100
AcDbSymbolTableRecord
100
AcDbLinetypeTableRecord
  2
BYLAYER
 70
     0
  3

 72
    65
 73
     0
 40
0.0
  0
LTYPE
  5
16
330
5
100
AcDbSymbolTableRecord
100
AcDbLinetypeTableRecord
  2
CONTINUOUS
 70
     0
  3
Solid line
 72
    65
 73
     0
 40
0.0
  0
ENDTAB
  0
TABLE
  2
LAYER
  5
2
100
AcDbSymbolTable
 70
2
  0
LAYER
  5
50
100
AcDbSymbolTableRecord
100
AcDbLayerTableRecord
  2
0
 70
0
  6
CONTINUOUS
  0
LAYER
  5
51
100
AcDbSymbolTableRecord
100
AcDbLayerTableRecord
  2
Layer_1
 70
0
  6
CONTINUOUS
  0
ENDTAB
  0
TABLE
  2
STYLE
  5
3
330
0
100
AcDbSymbolTable
 70
     1
  0
STYLE
  5
11
330
3
100
AcDbSymbolTableRecord
100
AcDbTextStyleTableRecord
  2
STANDARD
 70
     0
 40
0.0
 41
1.0
 50
0.0
 71
     0
 42
2.5
  3
txt
  4

  0
ENDTAB
  0
TABLE
  2
VIEW
  5
6
330
0
100
AcDbSymbolTable
 70
     0
  0
ENDTAB
  0
TABLE
  2
UCS
  5
7
330
0
100
AcDbSymbolTable
 70
     0
  0
ENDTAB
  0
TABLE
  2
APPID
  5
9
330
0
100
AcDbSymbolTable
 70
     2
  0
APPID
  5
12
330
9
100
AcDbSymbolTableRecord
100
AcDbRegAppTableRecord
  2
ACAD
 70
     0
  0
ENDTAB
  0
TABLE
  2
DIMSTYLE
  5
A
330
0
100
AcDbSymbolTable
 70
     1
  0
DIMSTYLE
105
27
330
A
100
AcDbSymbolTableRecord
100
AcDbDimStyleTableRecord
  2
ISO-25
 70
     0
  3

  4

  5

  6

  7

 40
1.0
 41
2.5
 42
0.625
 43
3.75
 44
1.25
 45
0.0
 46
0.0
 47
0.0
 48
0.0
140
2.5
141
2.5
142
0.0
143
0.03937007874016
144
1.0
145
0.0
146
1.0
147
0.625
 71
     0
 72
     0
 73
     0
 74
     0
 75
     0
 76
     0
 77
     1
 78
     8
170
     0
171
     3
172
     1
173
     0
174
     0
175
     0
176
     0
177
     0
178
     0
270
     2
271
     2
272
     2
273
     2
274
     3
340
11
275
     0
280
     0
281
     0
282
     0
283
     0
284
     8
285
     0
286
     0
287
     3
288
     0
  0
ENDTAB
  0
TABLE
  2
BLOCK_RECORD
  5
1
330
0
100
AcDbSymbolTable
 70
     1
  0
BLOCK_RECORD
  5
1F
330
1
100
AcDbSymbolTableRecord
100
AcDbBlockTableRecord
  2
*MODEL_SPACE
  0
BLOCK_RECORD
  5
1B
330
1
100
AcDbSymbolTableRecord
100
AcDbBlockTableRecord
  2
*PAPER_SPACE
  0
ENDTAB
  0
ENDSEC
  0
SECTION
  2
BLOCKS
  0
BLOCK
  5
20
330
1F
100
AcDbEntity
  8
0
100
AcDbBlockBegin
  2
*MODEL_SPACE
 70
     0
 10
0.0
 20
0.0
 30
0.0
  3
*MODEL_SPACE
  1

  0
ENDBLK
  5
21
330
1F
100
AcDbEntity
  8
0
100
AcDbBlockEnd
  0
BLOCK
  5
1C
330
1B
100
AcDbEntity
 67
     1
  8
0
100
AcDbBlockBegin
  2
*PAPER_SPACE
  1

  0
ENDBLK
  5
1D
330
1B
100
AcDbEntity
 67
     1
  8
0
100
AcDbBlockEnd
  0
ENDSEC
  0
SECTION
  2
ENTITIES
  0
SPLINE
  5
100
100
AcDbEntity
  8
Layer_1
 62
7
100
AcDbSpline
 70
8
 71
3
 72
8
 73
4
 74
0
 40
0
 40
0
 40
0
 40
0
 40
1
 40
1
 40
1
 40
1
 10
36.436653
 20
4.283565
 30
0.0
 10
42.687458
 20
2.159962
 30
0.0
 10
49.213546
 20
0.683187
 30
0.0
 10
55.833403
 20
0.514620
 30
0.0
  0
SPLINE
  5
101
100
AcDbEntity
  8
Layer_1
 62
7
100
AcDbSpline
 70
8
 71
3
 72
8
 73
4
 74
0
 40
0
 40
0
 40
0
 40
0
 40
1
 40
1
 40
1
 40
1
 10
55.833403
 20
0.514620
 30
0.0
 10
61.125128
 20
0.379691
 30
0.0
 10
66.467010
 20
1.173619
 30
0.0
 10
71.414559
 20
3.094753
 30
0.0
  0
SPLINE
  5
102
100
AcDbEntity
  8
Layer_1
 62
7
100
AcDbSpline
 70
8
 71
3
 72
8
 73
4
 74
0
 40
0
 40
0
 40
0
 40
0
 40
1
 40
1
 40
1
 40
1
 10
71.414559
 20
3.094753
 30
0.0
 10
76.114806
 20
4.919849
 30
0.0
 10
80.374556
 20
7.792441
 30
0.0
 10
83.970796
 20
11.314998
 30
0.0
  0
SPLINE
  5
103
100
AcDbEntity
  8
Layer_1
 62
7
100
AcDbSpline
 70
8
 71
3
 72
8
 73
4
 74
0
 40
0
 40
0
 40
0
 40
0
 40
1
 40
1
 40
1
 40
1
 10
83.970796
 20
11.314998
 30
0.0
 10
88.432539
 20
15.685304
 30
0.0
 10
91.908442
 20
20.971918
 30
0.0
 10
94.662920
 20
26.553146
 30
0.0
  0
SPLINE
  5
104
100
AcDbEntity
  8
Layer_1
 62
7
100
AcDbSpline
 70
8
 71
3
 72
8
 73
4
 74
0
 40
0
 40
0
 40
0
 40
0
 40
1
 40
1
 40
1
 40
1
 10
94.662920
 20
26.553146
 30
0.0
 10
98.100461
 20
33.518438
 30
0.0
 10
100.514052
 20
40.948006
 30
0.0
 10
102.334114
 20
48.485443
 30
0.0
  0
SPLINE
  5
105
100
AcDbEntity
  8
Layer_1
 62
7
100
AcDbSpline
 70
8
 71
3
 72
8
 73
4
 74
0
 40
0
 40
0
 40
0
 40
0
 40
1
 40
1
 40
1
 40
1
 10
102.334114
 20
48.485443
 30
0.0
 10
104.745146
 20
58.470274
 30
0.0
 10
106.172716
 20
68.669480
 30
0.0
 10
107.066714
 20
78.894274
 30
0.0
  0
SPLINE
  5
106
100
AcDbEntity
  8
Layer_1
 62
7
100
AcDbSpline
 70
8
 71
3
 72
8
 73
4
 74
0
 40
0
 40
0
 40
0
 40
0
 40
1
 40
1
 40
1
 40
1
 10
107.066714
 20
78.894274
 30
0.0
 10
108.014884
 20
89.738646
 30
0.0
 10
108.450161
 20
100.627994
 30
0.0
 10
108.388815
 20
111.510992
 30
0.0
  0
SPLINE
  5
107
100
AcDbEntity
  8
Layer_1
 62
7
100
AcDbSpline
 70
8
 71
3
 72
8
 73
4
 74
0
 40
0
 40
0
 40
0
 40
0
 40
1
 40
1
 40
1
 40
1
 10
108.388815
 20
111.510992
 30
0.0
 10
108.357445
 20
117.082885
 30
0.0
 10
107.775043
 20
122.635578
 30
0.0
 10
107.029795
 20
128.151647
 30
0.0
  0
SPLINE
  5
108
100
AcDbEntity
  8
Layer_1
 62
7
100
AcDbSpline
 70
8
 71
3
 72
8
 73
4
 74
0
 40
0
 40
0
 40
0
 40
0
 40
1
 40
1
 40
1
 40
1
 10
107.029795
 20
128.151647
 30
0.0
 10
105.782816
 20
137.381367
 30
0.0
 10
104.108243
 20
146.545361
 30
0.0
 10
102.570860
 20
155.729272
 30
0.0
  0
SPLINE
  5
109
100
AcDbEntity
  8
Layer_1
 62
7
100
AcDbSpline
 70
8
 71
3
 72
8
 73
4
 74
0
 40
0
 40
0
 40
0
 40
0
 40
1
 40
1
 40
1
 40
1
 10
102.570860
 20
155.729272
 30
0.0
 10
100.760205
 20
166.545638
 30
0.0
 10
99.032345
 20
177.397115
 30
0.0
 10
98.259167
 20
188.344668
 30
0.0
  0
SPLINE
  5
10a
100
AcDbEntity
  8
Layer_1
 62
7
100
AcDbSpline
 70
8
 71
3
 72
8
 73
4
 74
0
 40
0
 40
0
 40
0
 40
0
 40
1
 40
1
 40
1
 40
1
 10
98.259167
 20
188.344668
 30
0.0
 10
97.744188
 20
195.636359
 30
0.0
 10
97.601650
 20
202.987313
 30
0.0
 10
98.454229
 20
210.258709
 30
0.0
  0
SPLINE
  5
10b
100
AcDbEntity
  8
Layer_1
 62
7
100
AcDbSpline
 70
8
 71
3
 72
8
 73
4
 74
0
 40
0
 40
0
 40
0
 40
0
 40
1
 40
1
 40
1
 40
1
 10
98.454229
 20
210.258709
 30
0.0
 10
99.113057
 20
215.877619
 30
0.0
 10
100.371572
 20
221.479106
 30
0.0
 10
102.741131
 20
226.639370
 30
0.0
  0
SPLINE
  5
10c
100
AcDbEntity
  8
Layer_1
 62
7
100
AcDbSpline
 70
8
 71
3
 72
8
 73
4
 74
0
 40
0
 40
0
 40
0
 40
0
 40
1
 40
1
 40
1
 40
1
 10
102.741131
 20
226.639370
 30
0.0
 10
104.624617
 20
230.741102
 30
0.0
 10
107.293920
 20
234.502980
 30
0.0
 10
110.686186
 20
237.498104
 30
0.0
  0
SPLINE
  5
10d
100
AcDbEntity
  8
Layer_1
 62
7
100
AcDbSpline
 70
8
 71
3
 72
8
 73
4
 74
0
 40
0
 40
0
 40
0
 40
0
 40
1
 40
1
 40
1
 40
1
 10
110.686186
 20
237.498104
 30
0.0
 10
114.195092
 20
240.596220
 30
0.0
 10
118.443190
 20
242.780901
 30
0.0
 10
122.903906
 20
244.151773
 30
0.0
  0
SPLINE
  5
10e
100
AcDbEntity
  8
Layer_1
 62
7
100
AcDbSpline
 70
8
 71
3
 72
8
 73
4
 74
0
 40
0
 40
0
 40
0
 40
0
 40
1
 40
1
 40
1
 40
1
 10
122.903906
 20
244.151773
 30
0.0
 10
127.688073
 20
245.622047
 30
0.0
 10
132.701163
 20
246.180775
 30
0.0
 10
137.691927
 20
246.300397
 30
0.0
  0
SPLINE
  5
10f
100
AcDbEntity
  8
Layer_1
 62
7
100
AcDbSpline
 70
8
 71
3
 72
8
 73
4
 74
0
 40
0
 40
0
 40
0
 40
0
 40
1
 40
1
 40
1
 40
1
 10
137.691927
 20
246.300397
 30
0.0
 10
141.777033
 20
246.398287
 30
0.0
 10
145.862135
 20
246.496176
 30
0.0
 10
149.947238
 20
246.594066
 30
0.0
  0
SPLINE
  5
110
100
AcDbEntity
  8
Layer_1
 62
7
100
AcDbSpline
 70
8
 71
3
 72
8
 73
4
 74
0
 40
0
 40
0
 40
0
 40
0
 40
1
 40
1
 40
1
 40
1
 10
199.968847
 20
142.746746
 30
0.0
 10
206.318529
 20
136.407534
 30
0.0
 10
214.168883
 20
131.690457
 30
0.0
 10
222.539512
 20
128.532246
 30
0.0
  0
SPLINE
  5
111
100
AcDbEntity
  8
Layer_1
 62
7
100
AcDbSpline
 70
8
 71
3
 72
8
 73
4
 74
0
 40
0
 40
0
 40
0
 40
0
 40
1
 40
1
 40
1
 40
1
 10
222.539512
 20
128.532246
 30
0.0
 10
232.521158
 20
124.766211
 30
0.0
 10
243.216151
 20
123.081373
 30
0.0
 10
253.860087
 20
123.009260
 30
0.0
  0
SPLINE
  5
112
100
AcDbEntity
  8
Layer_1
 62
7
100
AcDbSpline
 70
8
 71
3
 72
8
 73
4
 74
0
 40
0
 40
0
 40
0
 40
0
 40
1
 40
1
 40
1
 40
1
 10
253.860087
 20
123.009260
 30
0.0
 10
266.095476
 20
122.926488
 30
0.0
 10
278.349865
 20
124.870753
 30
0.0
 10
289.942227
 20
128.783509
 30
0.0
  0
SPLINE
  5
113
100
AcDbEntity
  8
Layer_1
 62
7
100
AcDbSpline
 70
8
 71
3
 72
8
 73
4
 74
0
 40
0
 40
0
 40
0
 40
0
 40
1
 40
1
 40
1
 40
1
 10
289.942227
 20
128.783509
 30
0.0
 10
299.563204
 20
132.030879
 30
0.0
 10
308.796098
 20
136.623118
 30
0.0
 10
316.833604
 20
142.864441
 30
0.0
  0
SPLINE
  5
114
100
AcDbEntity
  8
Layer_1
 62
7
100
AcDbSpline
 70
8
 71
3
 72
8
 73
4
 74
0
 40
0
 40
0
 40
0
 40
0
 40
1
 40
1
 40
1
 40
1
 10
316.833604
 20
142.864441
 30
0.0
 10
323.297465
 20
147.883767
 30
0.0
 10
328.967512
 20
154.041071
 30
0.0
 10
332.910618
 20
161.247534
 30
0.0
  0
SPLINE
  5
115
100
AcDbEntity
  8
Layer_1
 62
7
100
AcDbSpline
 70
8
 71
3
 72
8
 73
4
 74
0
 40
0
 40
0
 40
0
 40
0
 40
1
 40
1
 40
1
 40
1
 10
332.910618
 20
161.247534
 30
0.0
 10
336.109648
 20
167.094085
 30
0.0
 10
338.028438
 20
173.637052
 30
0.0
 10
338.452766
 20
180.293820
 30
0.0
  0
SPLINE
  5
116
100
AcDbEntity
  8
Layer_1
 62
7
100
AcDbSpline
 70
8
 71
3
 72
8
 73
4
 74
0
 40
0
 40
0
 40
0
 40
0
 40
1
 40
1
 40
1
 40
1
 10
338.452766
 20
180.293820
 30
0.0
 10
338.867834
 20
186.805531
 30
0.0
 10
337.798643
 20
193.345436
 30
0.0
 10
335.804829
 20
199.540573
 30
0.0
  0
SPLINE
  5
117
100
AcDbEntity
  8
Layer_1
 62
7
100
AcDbSpline
 70
8
 71
3
 72
8
 73
4
 74
0
 40
0
 40
0
 40
0
 40
0
 40
1
 40
1
 40
1
 40
1
 10
335.804829
 20
199.540573
 30
0.0
 10
333.401805
 20
207.007181
 30
0.0
 10
329.585994
 20
213.973757
 30
0.0
 10
324.885207
 20
220.237417
 30
0.0
  0
SPLINE
  5
118
100
AcDbEntity
  8
Layer_1
 62
7
100
AcDbSpline
 70
8
 71
3
 72
8
 73
4
 74
0
 40
0
 40
0
 40
0
 40
0
 40
1
 40
1
 40
1
 40
1
 10
324.885207
 20
220.237417
 30
0.0
 10
319.004300
 20
228.073587
 30
0.0
 10
311.842889
 20
234.849638
 30
0.0
 10
304.307796
 20
241.070740
 30
0.0
  0
SPLINE
  5
119
100
AcDbEntity
  8
Layer_1
 62
7
100
AcDbSpline
 70
8
 71
3
 72
8
 73
4
 74
0
 40
0
 40
0
 40
0
 40
0
 40
1
 40
1
 40
1
 40
1
 10
304.307796
 20
241.070740
 30
0.0
 10
291.672306
 20
251.502803
 30
0.0
 10
277.972626
 20
260.552126
 30
0.0
 10
265.252229
 20
270.876019
 30
0.0
  0
SPLINE
  5
11a
100
AcDbEntity
  8
Layer_1
 62
7
100
AcDbSpline
 70
8
 71
3
 72
8
 73
4
 74
0
 40
0
 40
0
 40
0
 40
0
 40
1
 40
1
 40
1
 40
1
 10
265.252229
 20
270.876019
 30
0.0
 10
257.075312
 20
277.512416
 30
0.0
 10
249.377794
 20
284.789065
 30
0.0
 10
242.735259
 20
292.993020
 30
0.0
  0
SPLINE
  5
11b
100
AcDbEntity
  8
Layer_1
 62
7
100
AcDbSpline
 70
8
 71
3
 72
8
 73
4
 74
0
 40
0
 40
0
 40
0
 40
0
 40
1
 40
1
 40
1
 40
1
 10
242.735259
 20
292.993020
 30
0.0
 10
240.430174
 20
295.839950
 30
0.0
 10
238.490328
 20
298.954469
 30
0.0
 10
236.244197
 20
301.845657
 30
0.0
  0
SPLINE
  5
11c
100
AcDbEntity
  8
Layer_1
 62
7
100
AcDbSpline
 70
8
 71
3
 72
8
 73
4
 74
0
 40
0
 40
0
 40
0
 40
0
 40
1
 40
1
 40
1
 40
1
 10
236.244197
 20
301.845657
 30
0.0
 10
231.221503
 20
308.310803
 30
0.0
 10
225.079657
 20
313.901178
 30
0.0
 10
218.163583
 20
318.287509
 30
0.0
  0
SPLINE
  5
11d
100
AcDbEntity
  8
Layer_1
 62
7
100
AcDbSpline
 70
8
 71
3
 72
8
 73
4
 74
0
 40
0
 40
0
 40
0
 40
0
 40
1
 40
1
 40
1
 40
1
 10
218.163583
 20
318.287509
 30
0.0
 10
210.502923
 20
323.146091
 30
0.0
 10
201.952974
 20
326.478009
 30
0.0
 10
193.175460
 20
328.683326
 30
0.0
  0
SPLINE
  5
11e
100
AcDbEntity
  8
Layer_1
 62
7
100
AcDbSpline
 70
8
 71
3
 72
8
 73
4
 74
0
 40
0
 40
0
 40
0
 40
0
 40
1
 40
1
 40
1
 40
1
 10
193.175460
 20
328.683326
 30
0.0
 10
182.474680
 20
331.371855
 30
0.0
 10
171.449405
 20
332.488932
 30
0.0
 10
160.451032
 20
333.026721
 30
0.0
  0
SPLINE
  5
11f
100
AcDbEntity
  8
Layer_1
 62
7
100
AcDbSpline
 70
8
 71
3
 72
8
 73
4
 74
0
 40
0
 40
0
 40
0
 40
0
 40
1
 40
1
 40
1
 40
1
 10
160.451032
 20
333.026721
 30
0.0
 10
144.862874
 20
333.788939
 30
0.0
 10
129.248731
 20
333.385398
 30
0.0
 10
113.654876
 20
333.967521
 30
0.0
  0
SPLINE
  5
120
100
AcDbEntity
  8
Layer_1
 62
7
100
AcDbSpline
 70
8
 71
3
 72
8
 73
4
 74
0
 40
0
 40
0
 40
0
 40
0
 40
1
 40
1
 40
1
 40
1
 10
113.654876
 20
333.967521
 30
0.0
 10
110.129579
 20
334.099049
 30
0.0
 10
106.610124
 20
334.387578
 30
0.0
 10
103.078885
 20
334.355036
 30
0.0
  0
SPLINE
  5
121
100
AcDbEntity
  8
Layer_1
 62
7
100
AcDbSpline
 70
8
 71
3
 72
8
 73
4
 74
0
 40
0
 40
0
 40
0
 40
0
 40
1
 40
1
 40
1
 40
1
 10
103.078885
 20
334.355036
 30
0.0
 10
92.018192
 20
334.252989
 30
0.0
 10
81.023119
 20
331.841726
 30
0.0
 10
70.823195
 20
327.593310
 30
0.0
  0
SPLINE
  5
122
100
AcDbEntity
  8
Layer_1
 62
7
100
AcDbSpline
 70
8
 71
3
 72
8
 73
4
 74
0
 40
0
 40
0
 40
0
 40
0
 40
1
 40
1
 40
1
 40
1
 10
70.823195
 20
327.593310
 30
0.0
 10
58.276316
 20
322.367357
 30
0.0
 10
46.920506
 20
314.451402
 30
0.0
 10
37.341222
 20
304.840176
 30
0.0
  0
SPLINE
  5
123
100
AcDbEntity
  8
Layer_1
 62
7
100
AcDbSpline
 70
8
 71
3
 72
8
 73
4
 74
0
 40
0
 40
0
 40
0
 40
0
 40
1
 40
1
 40
1
 40
1
 10
37.341222
 20
304.840176
 30
0.0
 10
27.620247
 20
295.086803
 30
0.0
 10
19.625915
 20
283.583055
 30
0.0
 10
14.061536
 20
270.978444
 30
0.0
  0
SPLINE
  5
124
100
AcDbEntity
  8
Layer_1
 62
7
100
AcDbSpline
 70
8
 71
3
 72
8
 73
4
 74
0
 40
0
 40
0
 40
0
 40
0
 40
1
 40
1
 40
1
 40
1
 10
14.061536
 20
270.978444
 30
0.0
 10
11.148729
 20
264.380258
 30
0.0
 10
9.015182
 20
257.452951
 30
0.0
 10
7.552592
 20
250.387729
 30
0.0
  0
SPLINE
  5
125
100
AcDbEntity
  8
Layer_1
 62
7
100
AcDbSpline
 70
8
 71
3
 72
8
 73
4
 74
0
 40
0
 40
0
 40
0
 40
0
 40
1
 40
1
 40
1
 40
1
 10
7.552592
 20
250.387729
 30
0.0
 10
5.444096
 20
240.202356
 30
0.0
 10
3.237165
 20
230.023143
 30
0.0
 10
1.870027
 20
219.704693
 30
0.0
  0
SPLINE
  5
126
100
AcDbEntity
  8
Layer_1
 62
7
100
AcDbSpline
 70
8
 71
3
 72
8
 73
4
 74
0
 40
0
 40
0
 40
0
 40
0
 40
1
 40
1
 40
1
 40
1
 10
1.870027
 20
219.704693
 30
0.0
 10
0.785371
 20
211.518274
 30
0.0
 10
0.151839
 20
203.231509
 30
0.0
 10
0.702501
 20
194.977625
 30
0.0
  0
SPLINE
  5
127
100
AcDbEntity
  8
Layer_1
 62
7
100
AcDbSpline
 70
8
 71
3
 72
8
 73
4
 74
0
 40
0
 40
0
 40
0
 40
0
 40
1
 40
1
 40
1
 40
1
 10
0.702501
 20
194.977625
 30
0.0
 10
1.139633
 20
188.425436
 30
0.0
 10
2.341073
 20
181.861266
 30
0.0
 10
4.899927
 20
175.785827
 30
0.0
  0
SPLINE
  5
128
100
AcDbEntity
  8
Layer_1
 62
7
100
AcDbSpline
 70
8
 71
3
 72
8
 73
4
 74
0
 40
0
 40
0
 40
0
 40
0
 40
1
 40
1
 40
1
 40
1
 10
4.899927
 20
175.785827
 30
0.0
 10
6.935614
 20
170.952529
 30
0.0
 10
9.918248
 20
166.499074
 30
0.0
 10
13.751743
 20
162.904819
 30
0.0
  0
SPLINE
  5
129
100
AcDbEntity
  8
Layer_1
 62
7
100
AcDbSpline
 70
8
 71
3
 72
8
 73
4
 74
0
 40
0
 40
0
 40
0
 40
0
 40
1
 40
1
 40
1
 40
1
 10
13.751743
 20
162.904819
 30
0.0
 10
14.839858
 20
161.884611
 30
0.0
 10
15.992236
 20
160.933191
 30
0.0
 10
17.197569
 20
160.054639
 30
0.0
  0
SPLINE
  5
12a
100
AcDbEntity
  8
Layer_1
 62
7
100
AcDbSpline
 70
8
 71
3
 72
8
 73
4
 74
0
 40
0
 40
0
 40
0
 40
0
 40
1
 40
1
 40
1
 40
1
 10
423.142227
 20
323.518072
 30
0.0
 10
434.664571
 20
326.825726
 30
0.0
 10
446.779279
 20
328.091830
 30
0.0
 10
458.735097
 20
327.112819
 30
0.0
  0
SPLINE
  5
12b
100
AcDbEntity
  8
Layer_1
 62
7
100
AcDbSpline
 70
8
 71
3
 72
8
 73
4
 74
0
 40
0
 40
0
 40
0
 40
0
 40
1
 40
1
 40
1
 40
1
 10
458.735097
 20
327.112819
 30
0.0
 10
471.550983
 20
326.063395
 30
0.0
 10
484.090095
 20
322.391433
 30
0.0
 10
495.643884
 20
316.787528
 30
0.0
  0
SPLINE
  5
12c
100
AcDbEntity
  8
Layer_1
 62
7
100
AcDbSpline
 70
8
 71
3
 72
8
 73
4
 74
0
 40
0
 40
0
 40
0
 40
0
 40
1
 40
1
 40
1
 40
1
 10
495.643884
 20
316.787528
 30
0.0
 10
509.469358
 20
310.081814
 30
0.0
 10
521.908123
 20
300.714784
 30
0.0
 10
532.719046
 20
289.837115
 30
0.0
  0
SPLINE
  5
12d
100
AcDbEntity
  8
Layer_1
 62
7
100
AcDbSpline
 70
8
 71
3
 72
8
 73
4
 74
0
 40
0
 40
0
 40
0
 40
0
 40
1
 40
1
 40
1
 40
1
 10
532.719046
 20
289.837115
 30
0.0
 10
545.332350
 20
277.145915
 30
0.0
 10
555.868539
 20
262.438035
 30
0.0
 10
564.141245
 20
246.588283
 30
0.0
  0
SPLINE
  5
12e
100
AcDbEntity
  8
Layer_1
 62
7
100
AcDbSpline
 70
8
 71
3
 72
8
 73
4
 74
0
 40
0
 40
0
 40
0
 40
0
 40
1
 40
1
 40
1
 40
1
 10
564.141245
 20
246.588283
 30
0.0
 10
566.693257
 20
241.698860
 30
0.0
 10
569.086038
 20
236.719861
 30
0.0
 10
571.149471
 20
231.604498
 30
0.0
  0
SPLINE
  5
12f
100
AcDbEntity
  8
Layer_1
 62
7
100
AcDbSpline
 70
8
 71
3
 72
8
 73
4
 74
0
 40
0
 40
0
 40
0
 40
0
 40
1
 40
1
 40
1
 40
1
 10
571.149471
 20
231.604498
 30
0.0
 10
576.030807
 20
219.503282
 30
0.0
 10
577.782013
 20
206.238765
 30
0.0
 10
576.750845
 20
193.258809
 30
0.0
  0
SPLINE
  5
130
100
AcDbEntity
  8
Layer_1
 62
7
100
AcDbSpline
 70
8
 71
3
 72
8
 73
4
 74
0
 40
0
 40
0
 40
0
 40
0
 40
1
 40
1
 40
1
 40
1
 10
576.750845
 20
193.258809
 30
0.0
 10
575.675531
 20
179.723414
 30
0.0
 10
571.698183
 20
166.389770
 30
0.0
 10
564.955582
 20
154.593298
 30
0.0
  0
SPLINE
  5
131
100
AcDbEntity
  8
Layer_1
 62
7
100
AcDbSpline
 70
8
 71
3
 72
8
 73
4
 74
0
 40
0
 40
0
 40
0
 40
0
 40
1
 40
1
 40
1
 40
1
 10
564.955582
 20
154.593298
 30
0.0
 10
559.935273
 20
145.810054
 30
0.0
 10
553.329906
 20
137.845266
 30
0.0
 10
545.190467
 20
131.785058
 30
0.0
  0
SPLINE
  5
132
100
AcDbEntity
  8
Layer_1
 62
7
100
AcDbSpline
 70
8
 71
3
 72
8
 73
4
 74
0
 40
0
 40
0
 40
0
 40
0
 40
1
 40
1
 40
1
 40
1
 10
545.190467
 20
131.785058
 30
0.0
 10
538.619191
 20
126.892422
 30
0.0
 10
530.984886
 20
123.372813
 30
0.0
 10
522.911739
 20
121.861833
 30
0.0
  0
SPLINE
  5
133
100
AcDbEntity
  8
Layer_1
 62
7
100
AcDbSpline
 70
8
 71
3
 72
8
 73
4
 74
0
 40
0
 40
0
 40
0
 40
0
 40
1
 40
1
 40
1
 40
1
 10
522.911739
 20
121.861833
 30
0.0
 10
515.240886
 20
120.426142
 30
0.0
 10
507.274927
 20
120.951118
 30
0.0
 10
499.752949
 20
122.976756
 30
0.0
  0
SPLINE
  5
134
100
AcDbEntity
  8
Layer_1
 62
7
100
AcDbSpline
 70
8
 71
3
 72
8
 73
4
 74
0
 40
0
 40
0
 40
0
 40
0
 40
1
 40
1
 40
1
 40
1
 10
499.752949
 20
122.976756
 30
0.0
 10
495.217894
 20
124.198035
 30
0.0
 10
490.915393
 20
126.115956
 30
0.0
 10
486.684060
 20
128.138494
 30
0.0
  0
SPLINE
  5
135
100
AcDbEntity
  8
Layer_1
 62
7
100
AcDbSpline
 70
8
 71
3
 72
8
 73
4
 74
0
 40
0
 40
0
 40
0
 40
0
 40
1
 40
1
 40
1
 40
1
 10
486.684060
 20
128.138494
 30
0.0
 10
478.165912
 20
132.210142
 30
0.0
 10
469.046290
 20
135.228699
 30
0.0
 10
459.613497
 20
136.152378
 30
0.0
  0
SPLINE
  5
136
100
AcDbEntity
  8
Layer_1
 62
7
100
AcDbSpline
 70
8
 71
3
 72
8
 73
4
 74
0
 40
0
 40
0
 40
0
 40
0
 40
1
 40
1
 40
1
 40
1
 10
459.613497
 20
136.152378
 30
0.0
 10
452.222593
 20
136.876120
 30
0.0
 10
444.692149
 20
136.159937
 30
0.0
 10
437.580287
 20
134.002356
 30
0.0
  0
SPLINE
  5
137
100
AcDbEntity
  8
Layer_1
 62
7
100
AcDbSpline
 70
8
 71
3
 72
8
 73
4
 74
0
 40
0
 40
0
 40
0
 40
0
 40
1
 40
1
 40
1
 40
1
 10
437.580287
 20
134.002356
 30
0.0
 10
429.472142
 20
131.543055
 30
0.0
 10
422.018120
 20
127.251024
 30
0.0
 10
415.356779
 20
122.063698
 30
0.0
  0
SPLINE
  5
138
100
AcDbEntity
  8
Layer_1
 62
7
100
AcDbSpline
 70
8
 71
3
 72
8
 73
4
 74
0
 40
0
 40
0
 40
0
 40
0
 40
1
 40
1
 40
1
 40
1
 10
415.356779
 20
122.063698
 30
0.0
 10
407.246404
 20
115.747994
 30
0.0
 10
400.180917
 20
108.206211
 30
0.0
 10
393.630429
 20
100.315276
 30
0.0
  0
SPLINE
  5
139
100
AcDbEntity
  8
Layer_1
 62
7
100
AcDbSpline
 70
8
 71
3
 72
8
 73
4
 74
0
 40
0
 40
0
 40
0
 40
0
 40
1
 40
1
 40
1
 40
1
 10
393.630429
 20
100.315276
 30
0.0
 10
384.026007
 20
88.745424
 30
0.0
 10
375.522712
 20
76.325291
 30
0.0
 10
366.436237
 20
64.356699
 30
0.0
  0
SPLINE
  5
13a
100
AcDbEntity
  8
Layer_1
 62
7
100
AcDbSpline
 70
8
 71
3
 72
8
 73
4
 74
0
 40
0
 40
0
 40
0
 40
0
 40
1
 40
1
 40
1
 40
1
 10
366.436237
 20
64.356699
 30
0.0
 10
361.568810
 20
57.945373
 30
0.0
 10
355.438416
 20
52.511546
 30
0.0
 10
348.519235
 20
48.397266
 30
0.0
  0
SPLINE
  5
13b
100
AcDbEntity
  8
Layer_1
 62
7
100
AcDbSpline
 70
8
 71
3
 72
8
 73
4
 74
0
 40
0
 40
0
 40
0
 40
0
 40
1
 40
1
 40
1
 40
1
 10
348.519235
 20
48.397266
 30
0.0
 10
340.496583
 20
43.626822
 30
0.0
 10
331.518505
 20
40.647005
 30
0.0
 10
322.384671
 20
38.879773
 30
0.0
  0
SPLINE
  5
13c
100
AcDbEntity
  8
Layer_1
 62
7
100
AcDbSpline
 70
8
 71
3
 72
8
 73
4
 74
0
 40
0
 40
0
 40
0
 40
0
 40
1
 40
1
 40
1
 40
1
 10
322.384671
 20
38.879773
 30
0.0
 10
311.334542
 20
36.741770
 30
0.0
 10
300.037081
 20
36.236372
 30
0.0
 10
288.805383
 20
36.386872
 30
0.0
  0
SPLINE
  5
13d
100
AcDbEntity
  8
Layer_1
 62
7
100
AcDbSpline
 70
8
 71
3
 72
8
 73
4
 74
0
 40
0
 40
0
 40
0
 40
0
 40
1
 40
1
 40
1
 40
1
 10
288.805383
 20
36.386872
 30
0.0
 10
269.775912
 20
36.641991
 30
0.0
 10
250.846870
 20
38.825991
 30
0.0
 10
231.852265
 20
39.780019
 30
0.0
  0
SPLINE
  5
13e
100
AcDbEntity
  8
Layer_1
 62
7
100
AcDbSpline
 70
8
 71
3
 72
8
 73
4
 74
0
 40
0
 40
0
 40
0
 40
0
 40
1
 40
1
 40
1
 40
1
 10
231.852265
 20
39.780019
 30
0.0
 10
225.936979
 20
40.077090
 30
0.0
 10
220.013465
 20
40.134539
 30
0.0
 10
214.089763
 20
40.122444
 30
0.0
  0
SPLINE
  5
13f
100
AcDbEntity
  8
Layer_1
 62
7
100
AcDbSpline
 70
8
 71
3
 72
8
 73
4
 74
0
 40
0
 40
0
 40
0
 40
0
 40
1
 40
1
 40
1
 40
1
 10
214.089763
 20
40.122444
 30
0.0
 10
210.494657
 20
40.114885
 30
0.0
 10
206.847069
 20
40.323893
 30
0.0
 10
203.385056
 20
41.360844
 30
0.0
  0
SPLINE
  5
140
100
AcDbEntity
  8
Layer_1
 62
7
100
AcDbSpline
 70
8
 71
3
 72
8
 73
4
 74
0
 40
0
 40
0
 40
0
 40
0
 40
1
 40
1
 40
1
 40
1
 10
203.385056
 20
41.360844
 30
0.0
 10
201.012945
 20
42.071282
 30
0.0
 10
198.722313
 20
43.279748
 30
0.0
 10
197.080142
 20
45.175143
 30
0.0
  0
SPLINE
  5
141
100
AcDbEntity
  8
Layer_1
 62
7
100
AcDbSpline
 70
8
 71
3
 72
8
 73
4
 74
0
 40
0
 40
0
 40
0
 40
0
 40
1
 40
1
 40
1
 40
1
 10
197.080142
 20
45.175143
 30
0.0
 10
195.538995
 20
46.953940
 30
0.0
 10
194.725206
 20
49.244598
 30
0.0
 10
194.362201
 20
51.542362
 30
0.0
  0
SPLINE
  5
142
100
AcDbEntity
  8
Layer_1
 62
7
100
AcDbSpline
 70
8
 71
3
 72
8
 73
4
 74
0
 40
0
 40
0
 40
0
 40
0
 40
1
 40
1
 40
1
 40
1
 10
194.362201
 20
51.542362
 30
0.0
 10
193.854826
 20
54.753978
 30
0.0
 10
194.000084
 20
58.020132
 30
0.0
 10
194.147410
 20
61.253707
 30
0.0
  0
SPLINE
  5
143
100
AcDbEntity
  8
Layer_1
 62
7
100
AcDbSpline
 70
8
 71
3
 72
8
 73
4
 74
0
 40
0
 40
0
 40
0
 40
0
 40
1
 40
1
 40
1
 40
1
 10
194.147410
 20
61.253707
 30
0.0
 10
194.370062
 20
66.141317
 30
0.0
 10
194.649434
 20
71.085883
 30
0.0
 10
193.776185
 20
75.929575
 30
0.0
  0
SPLINE
  5
144
100
AcDbEntity
  8
Layer_1
 62
7
100
AcDbSpline
 70
8
 71
3
 72
8
 73
4
 74
0
 40
0
 40
0
 40
0
 40
0
 40
1
 40
1
 40
1
 40
1
 10
193.776185
 20
75.929575
 30
0.0
 10
193.451146
 20
77.732561
 30
0.0
 10
192.963315
 20
79.509052
 30
0.0
 10
192.273260
 20
81.207458
 30
0.0
  0
ENDSEC
  0
SECTION
  2
OBJECTS
  0
DICTIONARY
  5
C
330
0
100
AcDbDictionary
  3
ACAD_GROUP
350
D
  3
ACAD_MLINESTYLE
350
17
  0
DICTIONARY
  5
D
330
C
100
AcDbDictionary
  0
DICTIONARY
  5
1A
330
C
100
AcDbDictionary
  0
DICTIONARY
  5
17
330
C
100
AcDbDictionary
  3
STANDARD
350
18
  0
DICTIONARY
  5
19
330
C
100
AcDbDictionary
  0
ENDSEC
  0
EOF
